<svg width="29" height="18" viewBox="0 0 29 18" fill="none" xmlns="http://www.w3.org/2000/svg">
<path d="M8.20463 0C9.01238 0 9.75947 0.0642855 10.4421 0.254571C11.126 0.381856 11.6859 0.636427 12.1827 0.953998C12.6808 1.27285 13.0537 1.71771 13.3015 2.28985C13.5505 2.86199 13.6756 3.56271 13.6756 4.32513C13.6756 5.21613 13.4885 5.97856 13.0537 6.5507C12.6808 7.12413 12.0589 7.63199 11.313 8.01384C12.3698 8.3327 13.1776 8.90484 13.6756 9.66855C14.1724 10.431 14.4834 11.385 14.4834 12.4663C14.4834 13.3573 14.2963 14.1197 13.9853 14.7561C13.6756 15.3925 13.1776 15.9647 12.6176 16.3465C12.0093 16.7558 11.3368 17.0567 10.6292 17.2363C9.88335 17.4278 9.13753 17.5551 8.39171 17.5551H0.0600586V0H8.20463ZM7.70657 7.12284C8.39045 7.12284 8.95044 6.93256 9.38529 6.61499C9.82014 6.29742 10.0072 5.72399 10.0072 5.02456C10.0072 4.64271 9.94402 4.26213 9.82014 4.00756C9.69626 3.75299 9.50917 3.56142 9.26141 3.37114C9.01238 3.24385 8.76336 3.11657 8.45239 3.05357C8.14142 2.98928 7.83172 2.98928 7.45755 2.98928H3.85235V7.12413H7.70784L7.70657 7.12284ZM7.89366 14.6288C8.26657 14.6288 8.63948 14.5645 8.95044 14.5015C9.26141 14.4373 9.57238 14.3113 9.82014 14.1197C10.0734 13.9336 10.2854 13.6952 10.4421 13.4203C10.566 13.1027 10.6911 12.7208 10.6911 12.276C10.6911 11.385 10.4421 10.7486 9.94529 10.3037C9.44723 9.92184 8.76336 9.73155 7.9556 9.73155H3.85235V14.6301L7.89366 14.6288ZM19.8925 14.5645C20.3892 15.0737 21.1351 15.3283 22.1299 15.3283C22.8138 15.3283 23.4357 15.138 23.9325 14.8204C24.4306 14.4385 24.7415 14.0567 24.8654 13.6761H27.9119C27.4138 15.201 26.668 16.2823 25.6744 16.983C24.6783 17.6181 23.4977 18 22.068 18C21.1532 18.0028 20.2462 17.8301 19.3944 17.4908C18.6279 17.1985 17.9444 16.7179 17.4047 16.092C16.8274 15.5064 16.4006 14.7854 16.1621 13.9924C15.8511 13.1657 15.726 12.276 15.726 11.2577C15.726 10.3037 15.8511 9.41398 16.1621 8.58598C16.4616 7.78931 16.9044 7.05638 17.4679 6.4247C18.0356 5.83179 18.7109 5.35632 19.4563 5.02456C20.2865 4.68521 21.1733 4.51233 22.068 4.51542C23.1247 4.51542 24.0576 4.70699 24.8654 5.15185C25.6744 5.5967 26.2951 6.10584 26.7919 6.86956C27.2899 7.56898 27.6641 8.3957 27.9119 9.2867C28.0358 10.1764 28.0977 11.0674 28.0358 12.0844H19.0215C19.0215 13.1027 19.3944 14.0567 19.8925 14.5658V14.5645ZM23.8086 7.88656C23.3738 7.4417 22.6899 7.18713 21.8809 7.18713C21.3221 7.18713 20.886 7.3157 20.5131 7.50599C20.1402 7.69627 19.8925 7.95084 19.6434 8.20541C19.4142 8.45119 19.2623 8.761 19.2073 9.09513C19.1454 9.41398 19.0834 9.66855 19.0834 9.92184H24.6783C24.5544 8.96784 24.2435 8.3327 23.8086 7.88656ZM18.3376 1.20857H25.3003V2.92628H18.3389V1.20857H18.3376Z" fill="white"/>
</svg>
