<svg width="22" height="22" viewBox="0 0 22 22" fill="none" xmlns="http://www.w3.org/2000/svg">
<path d="M6.86006 1H15.2601C18.4601 1 21.0601 3.6 21.0601 6.8V15.2C21.0601 16.7383 20.449 18.2135 19.3613 19.3012C18.2736 20.3889 16.7983 21 15.2601 21H6.86006C3.66006 21 1.06006 18.4 1.06006 15.2V6.8C1.06006 5.26174 1.67113 3.78649 2.75884 2.69878C3.84655 1.61107 5.3218 1 6.86006 1ZM6.66006 3C5.70528 3 4.78961 3.37928 4.11447 4.05442C3.43934 4.72955 3.06006 5.64522 3.06006 6.6V15.4C3.06006 17.39 4.67006 19 6.66006 19H15.4601C16.4148 19 17.3305 18.6207 18.0056 17.9456C18.6808 17.2705 19.0601 16.3548 19.0601 15.4V6.6C19.0601 4.61 17.4501 3 15.4601 3H6.66006ZM16.3101 4.5C16.6416 4.5 16.9595 4.6317 17.1939 4.86612C17.4284 5.10054 17.5601 5.41848 17.5601 5.75C17.5601 6.08152 17.4284 6.39946 17.1939 6.63388C16.9595 6.8683 16.6416 7 16.3101 7C15.9785 7 15.6606 6.8683 15.4262 6.63388C15.1918 6.39946 15.0601 6.08152 15.0601 5.75C15.0601 5.41848 15.1918 5.10054 15.4262 4.86612C15.6606 4.6317 15.9785 4.5 16.3101 4.5ZM11.0601 6C12.3861 6 13.6579 6.52678 14.5956 7.46447C15.5333 8.40215 16.0601 9.67392 16.0601 11C16.0601 12.3261 15.5333 13.5979 14.5956 14.5355C13.6579 15.4732 12.3861 16 11.0601 16C9.73398 16 8.46221 15.4732 7.52452 14.5355C6.58684 13.5979 6.06006 12.3261 6.06006 11C6.06006 9.67392 6.58684 8.40215 7.52452 7.46447C8.46221 6.52678 9.73398 6 11.0601 6ZM11.0601 8C10.2644 8 9.50135 8.31607 8.93874 8.87868C8.37613 9.44129 8.06006 10.2044 8.06006 11C8.06006 11.7956 8.37613 12.5587 8.93874 13.1213C9.50135 13.6839 10.2644 14 11.0601 14C11.8557 14 12.6188 13.6839 13.1814 13.1213C13.744 12.5587 14.0601 11.7956 14.0601 11C14.0601 10.2044 13.744 9.44129 13.1814 8.87868C12.6188 8.31607 11.8557 8 11.0601 8Z" fill="white" stroke="white" stroke-width="0.5"/>
</svg>
